<svg width="42" height="57" viewBox="0 0 42 57" fill="none" xmlns="http://www.w3.org/2000/svg">
<path fill-rule="evenodd" clip-rule="evenodd" d="M24.6114 11.4989C24.4598 11.3474 24.2542 11.2622 24.0399 11.2622C23.8255 11.2622 23.6199 11.3474 23.4683 11.4989L13.5616 21.4056C13.4601 21.5072 13.3874 21.634 13.3511 21.7729L12.2734 25.8988C12.2009 26.1765 12.281 26.4717 12.4839 26.6746C12.6868 26.8775 12.9821 26.9577 13.2597 26.8851L17.3856 25.8074C17.5246 25.7711 17.6514 25.6985 17.7529 25.5969L27.6596 15.6902C27.9753 15.3746 27.9753 14.8628 27.6596 14.5472L24.6114 11.4989ZM14.8598 22.3936L24.0399 13.2136L25.945 15.1187L16.7649 24.2988L14.1862 24.9723L14.8598 22.3936Z" fill="white"/>
<path d="M12.6091 28.5055C12.1627 28.5055 11.8008 28.8674 11.8008 29.3138C11.8008 29.7602 12.1627 30.1221 12.6091 30.1221H28.7747C29.2211 30.1221 29.5829 29.7602 29.5829 29.3138C29.5829 28.8674 29.2211 28.5055 28.7747 28.5055H12.6091Z" fill="white"/>
<path d="M12.89 43.97V46.01H15.29V46.94H12.89V49.07H15.59V50H11.75V43.04H15.59V43.97H12.89ZM16.6141 47.22C16.6141 46.6667 16.7275 46.1767 16.9541 45.75C17.1875 45.3233 17.5008 44.9933 17.8941 44.76C18.2941 44.52 18.7375 44.4 19.2241 44.4C19.5841 44.4 19.9375 44.48 20.2841 44.64C20.6375 44.7933 20.9175 45 21.1241 45.26V42.6H22.2741V50H21.1241V49.17C20.9375 49.4367 20.6775 49.6567 20.3441 49.83C20.0175 50.0033 19.6408 50.09 19.2141 50.09C18.7341 50.09 18.2941 49.97 17.8941 49.73C17.5008 49.4833 17.1875 49.1433 16.9541 48.71C16.7275 48.27 16.6141 47.7733 16.6141 47.22ZM21.1241 47.24C21.1241 46.86 21.0441 46.53 20.8841 46.25C20.7308 45.97 20.5275 45.7567 20.2741 45.61C20.0208 45.4633 19.7475 45.39 19.4541 45.39C19.1608 45.39 18.8875 45.4633 18.6341 45.61C18.3808 45.75 18.1741 45.96 18.0141 46.24C17.8608 46.5133 17.7841 46.84 17.7841 47.22C17.7841 47.6 17.8608 47.9333 18.0141 48.22C18.1741 48.5067 18.3808 48.7267 18.6341 48.88C18.8941 49.0267 19.1675 49.1 19.4541 49.1C19.7475 49.1 20.0208 49.0267 20.2741 48.88C20.5275 48.7333 20.7308 48.52 20.8841 48.24C21.0441 47.9533 21.1241 47.62 21.1241 47.24ZM24.3515 43.76C24.1448 43.76 23.9715 43.69 23.8315 43.55C23.6915 43.41 23.6215 43.2367 23.6215 43.03C23.6215 42.8233 23.6915 42.65 23.8315 42.51C23.9715 42.37 24.1448 42.3 24.3515 42.3C24.5515 42.3 24.7215 42.37 24.8615 42.51C25.0015 42.65 25.0715 42.8233 25.0715 43.03C25.0715 43.2367 25.0015 43.41 24.8615 43.55C24.7215 43.69 24.5515 43.76 24.3515 43.76ZM24.9115 44.49V50H23.7715V44.49H24.9115ZM27.7382 45.42V48.47C27.7382 48.6767 27.7849 48.8267 27.8782 48.92C27.9782 49.0067 28.1449 49.05 28.3782 49.05H29.0782V50H28.1782C27.6649 50 27.2715 49.88 26.9982 49.64C26.7249 49.4 26.5882 49.01 26.5882 48.47V45.42H25.9382V44.49H26.5882V43.12H27.7382V44.49H29.0782V45.42H27.7382Z" fill="white"/>
</svg>
