<svg width="101" height="101" viewBox="0 0 101 101" fill="none" xmlns="http://www.w3.org/2000/svg">
<mask id="mask0_79_269" style="mask-type:alpha" maskUnits="userSpaceOnUse" x="0" y="0" width="101" height="101">
<circle cx="50.1928" cy="50.1928" r="50.1928" fill="white"/>
</mask>
<g mask="url(#mask0_79_269)">
<rect x="-4.47827" y="-4.1051" width="108.969" height="108.222" fill="white"/>
<path d="M32.0184 116.971C19.4485 114.219 15.5176 102.662 15.1234 97.2271L79.0956 98.4839C76.8008 113.555 65.3939 116.733 64.0867 117.097L64.077 117.1C62.8177 117.451 47.7309 120.411 32.0184 116.971Z" fill="#F1F1F1"/>
<g clip-path="url(#clip0_79_269)">
<path d="M78.8854 45.2531C79.7733 63.8059 65.0628 66.5226 47.9159 66.1857C30.769 65.8488 15.7961 62.7994 17.7925 44.0529C19.5493 27.5559 31.6913 18.9025 48.8382 19.2394C65.9851 19.5762 78.1594 30.085 78.8854 45.2531Z" fill="#F1F1F1"/>
<path fill-rule="evenodd" clip-rule="evenodd" d="M21.4126 32.101C22.874 29.959 26.4242 25.6213 29.9354 25.3897C34.3244 25.1003 41.5191 28.623 41.3469 37.3864L41.1526 47.2764L48.1632 47.4141L48.163 47.4196L55.1737 47.5574L55.368 37.6674C55.5402 28.904 62.8676 25.6666 67.2419 26.1282C70.7413 26.4975 74.2412 31.0939 75.6174 33.2917C72.8468 27.0039 67.0877 22.8971 61.2085 20.8706C56.5039 19.2489 51.8018 19.0063 48.7215 19.0015L48.7216 18.9959C45.6435 18.8798 40.9353 18.9375 36.1707 20.3731C30.2164 22.1672 24.4279 25.9269 21.4126 32.101Z" fill="#3C3135"/>
<path d="M43.4357 58.5833C37.1399 57.7583 32.8741 54.3264 31.5282 52.7136L65.0841 53.1224C62.2438 57.4499 51.3055 59.6146 43.4357 58.5833Z" fill="#DF921C"/>
<path d="M48.1067 56.6848C38.8868 56.8042 32.7215 53.5855 30.7913 51.9612C30.7987 51.5857 36.3147 44.9312 48.3403 44.7917C60.366 44.6522 65.469 52.6425 65.0861 53.0107C64.7031 53.3789 59.6316 56.5355 48.1067 56.6848Z" fill="#FFC921"/>
<ellipse cx="56.947" cy="49.1504" rx="1.50257" ry="1.00171" transform="rotate(37.525 56.947 49.1504)" fill="#2C2728"/>
<ellipse cx="1.50257" cy="1.00172" rx="1.50257" ry="1.00172" transform="matrix(-0.816399 0.577488 0.577488 0.816399 39.8181 47.1158)" fill="#2C2728"/>
<ellipse cx="69.9411" cy="41.7572" rx="5.81993" ry="7.73706" transform="rotate(-14.0088 69.9411 41.7572)" fill="#292826"/>
<ellipse cx="5.81992" cy="7.73706" rx="5.81992" ry="7.73706" transform="matrix(-0.960002 -0.279992 -0.279992 0.960002 34.3804 35.0199)" fill="#292826"/>
</g>
<path d="M26.333 62.1299L24.5484 63.723C25.8443 67.8813 37.2794 67.7302 49.8882 67.9779C59.4027 68.1649 66.4969 66.1752 69.747 64.3605L69.0229 62.9686L26.333 62.1299Z" fill="#F1F1F1"/>
<path d="M69.9077 63.9882C70.6498 64.462 72.1331 65.4596 72.1291 65.6599C72.1242 65.9103 77.819 69.2784 79.0168 72.0572C80.2146 74.8359 85.6391 85.5878 85.887 85.7179C86.1349 85.848 86.2454 86.6016 86.7412 86.8618C87.2371 87.122 88.484 87.397 88.4644 88.3985C88.4447 89.4001 87.1338 92.38 86.2402 93.2392C85.3467 94.0983 83.4418 95.4385 81.8315 94.5302C80.2212 93.6219 81.1173 92.6376 80.8767 92.1319C80.7231 91.809 80.4175 91.4321 80.092 90.906C79.9038 91.1948 79.88 91.8618 79.8677 92.4878C79.8554 93.1137 80.5623 95.3819 80.4174 96.381C80.2725 97.38 79.3766 98.3643 75.9521 100.551C72.5276 102.738 59.1102 103.602 58.1063 103.707C57.1023 103.813 41.4461 103.881 29.9508 102.528C18.4554 101.175 16.0106 98.1213 14.6581 96.8424C13.3056 95.5634 13.6076 92.9394 14.1207 92.3232C14.5311 91.8303 14.4784 90.3682 14.4007 89.6987C14.2867 89.9373 14.2052 90.0706 14.165 90.0698C13.7894 90.0624 13.3991 90.8062 13.2591 91.5549C13.1192 92.3036 11.4548 94.1494 9.34626 93.1061C7.2377 92.0628 6.30761 88.4126 6.08182 87.1558C5.85604 85.8989 7.3657 85.5529 7.74373 85.4351C8.12176 85.3173 8.50717 84.8239 8.64466 84.2004C8.78215 83.5769 11.4923 79.4973 13.7165 74.6567C15.9406 69.8161 22.1684 65.1793 22.5489 64.9363C22.8533 64.7419 24.3695 63.6362 25.0896 63.1077C25.4307 64.8677 34.7954 66.3041 49.0597 66.96C60.4711 67.4848 67.7131 65.1974 69.9077 63.9882Z" fill="#980808"/>
<path d="M9.73572 92.9881C9.33511 92.9803 7.69021 90.8606 6.91784 89.8018C6.70509 90.0063 6.22459 90.6648 6.00461 91.6624C5.72964 92.9094 6.69918 94.5566 7.57306 94.699C8.27215 94.8129 9.30612 93.6059 9.73572 92.9881Z" fill="#F1F1F1"/>
<path d="M84.5602 94.4581C84.9608 94.4659 86.6877 92.4126 87.501 91.3849C87.7056 91.5976 88.1599 92.2745 88.3405 93.2799C88.5663 94.5368 87.5328 96.1446 86.654 96.2525C85.951 96.3389 84.9652 95.0922 84.5602 94.4581Z" fill="#F1F1F1"/>
<path d="M40.6988 82.27C40.7638 82.2 40.8418 82.1435 40.9286 82.1037C41.0154 82.0639 41.1091 82.0416 41.2045 82.038C41.2999 82.0344 41.3951 82.0497 41.4846 82.0829C41.5741 82.1161 41.6562 82.1666 41.7262 82.2315L44.0051 84.3459L43.0162 85.4118L40.7373 83.2974C40.6673 83.2325 40.6108 83.1544 40.571 83.0676C40.5311 82.9808 40.5088 82.8871 40.5053 82.7917C40.5017 82.6963 40.5169 82.6011 40.5502 82.5116C40.5834 82.4221 40.6339 82.34 40.6988 82.27Z" fill="white"/>
<path d="M53.4653 85.6171L52.519 84.5132L54.8792 82.49C55.0256 82.3645 55.2158 82.3023 55.4081 82.3171C55.6003 82.3319 55.7788 82.4224 55.9043 82.5688C56.0298 82.7152 56.0919 82.9054 56.0772 83.0976C56.0624 83.2899 55.9719 83.4684 55.8255 83.5938L53.4653 85.6171Z" fill="white"/>
<path d="M54.4042 86.9809C54.8766 89.2824 55.556 90.7704 55.1866 91.6101C54.9924 92.0514 54.6045 92.4171 53.9746 92.4047C52.9926 92.3854 53.0154 91.2273 52.0333 91.208C51.0513 91.1887 51.0287 92.3468 50.0468 92.3275C49.0649 92.3082 49.0877 91.1502 48.1059 91.1309C47.1241 91.1116 47.1013 92.2697 46.1194 92.2504C45.1375 92.2311 45.1603 91.073 44.1785 91.0537C43.1967 91.0344 43.174 92.1925 42.1923 92.1732C41.6094 92.1618 41.2867 91.812 41.0855 91.4112C40.6021 90.4483 41.8137 88.374 42.3031 86.5335C42.844 84.4997 42.8518 81.9534 42.9491 80.4195C43.1369 77.4615 45.4567 75.101 48.4203 75.1592C51.384 75.2174 53.5229 77.6706 53.6807 80.6304C53.7657 82.226 53.9718 84.8742 54.4042 86.9809Z" fill="white"/>
<path d="M46.2921 80.8318C46.6206 80.8382 46.8921 80.5772 46.8986 80.2487C46.905 79.9202 46.644 79.6487 46.3155 79.6422C45.987 79.6358 45.7155 79.8968 45.709 80.2253C45.7026 80.5538 45.9636 80.8253 46.2921 80.8318Z" fill="#292A2E"/>
<path d="M50.3708 80.912C50.6993 80.9184 50.9708 80.6574 50.9772 80.3289C50.9837 80.0004 50.7226 79.7289 50.3942 79.7224C50.0657 79.716 49.7941 79.977 49.7877 80.3055C49.7812 80.634 50.0423 80.9055 50.3708 80.912Z" fill="#292A2E"/>
<path d="M49.3768 81.9035C49.4111 81.9041 49.4449 81.9124 49.4756 81.9276C49.5063 81.9429 49.5333 81.9649 49.5545 81.9919C49.5757 82.0189 49.5906 82.0503 49.5982 82.0838C49.6057 82.1173 49.6057 82.152 49.5981 82.1855C49.4589 82.7793 48.9216 83.1438 48.2871 83.1313C47.6527 83.1188 47.1301 82.7338 47.0143 82.1348C47.008 82.101 47.0094 82.0663 47.0182 82.0331C47.0271 81.9999 47.0432 81.9691 47.0655 81.943C47.0877 81.9168 47.1155 81.8959 47.1469 81.8819C47.1782 81.8678 47.2123 81.8609 47.2466 81.8617L49.3768 81.9035Z" fill="white"/>
<path d="M48.2855 83.2035C47.602 83.1901 47.0625 82.7661 46.9431 82.1483C46.9346 82.1043 46.936 82.059 46.9474 82.0157C46.9587 81.9724 46.9796 81.9321 47.0086 81.8979C47.0378 81.8631 47.0745 81.8352 47.1159 81.8165C47.1573 81.7977 47.2024 81.7884 47.2478 81.7894L49.3781 81.8312C49.4236 81.8321 49.4683 81.8431 49.5089 81.8635C49.5496 81.8839 49.5851 81.9131 49.6129 81.9491C49.6405 81.9844 49.6598 82.0254 49.6695 82.0692C49.6791 82.1129 49.6788 82.1583 49.6686 82.2019C49.5247 82.8145 48.9689 83.217 48.2855 83.2035ZM47.2449 81.9339C47.221 81.9334 47.1973 81.9383 47.1756 81.9482C47.1538 81.958 47.1346 81.9727 47.1192 81.991C47.1042 82.0087 47.0933 82.0296 47.0874 82.052C47.0815 82.0745 47.0807 82.098 47.0851 82.1209C47.1912 82.6698 47.6747 83.0467 48.2882 83.0588C48.9018 83.0709 49.3997 82.7132 49.5273 82.1688C49.5326 82.1462 49.5327 82.1227 49.5277 82.1C49.5227 82.0773 49.5126 82.056 49.4983 82.0377C49.4837 82.0188 49.465 82.0035 49.4437 81.9927C49.4223 81.982 49.3989 81.9762 49.375 81.9758L47.2449 81.9339Z" fill="#292A2E"/>
</g>
<defs>
<clipPath id="clip0_79_269">
<rect width="61.3004" height="46.9554" fill="white" transform="translate(18.1708 18.6369) rotate(1.1255)"/>
</clipPath>
</defs>
</svg>
