<svg width="117" height="117" viewBox="0 0 117 117" fill="none" xmlns="http://www.w3.org/2000/svg">
<g filter="url(#filter0_d_79_269)">
<mask id="mask0_79_269" style="mask-type:alpha" maskUnits="userSpaceOnUse" x="8" y="8" width="101" height="101">
<circle cx="58.1928" cy="58.1928" r="50.1928" fill="white"/>
</mask>
<g mask="url(#mask0_79_269)">
<rect x="3.52173" y="3.8949" width="108.969" height="108.222" fill="white"/>
<path d="M40.0184 124.971C27.4485 122.219 23.5176 110.662 23.1234 105.227L87.0956 106.484C84.8008 121.555 73.3939 124.733 72.0867 125.097L72.077 125.1C70.8177 125.451 55.7309 128.411 40.0184 124.971Z" fill="#F1F1F1"/>
<g clip-path="url(#clip0_79_269)">
<path d="M86.8854 53.2531C87.7733 71.8059 73.0628 74.5226 55.9159 74.1857C38.769 73.8488 23.7961 70.7994 25.7925 52.0529C27.5493 35.5559 39.6913 26.9025 56.8382 27.2394C73.9851 27.5762 86.1594 38.085 86.8854 53.2531Z" fill="#F1F1F1"/>
<path fill-rule="evenodd" clip-rule="evenodd" d="M29.4126 40.101C30.874 37.959 34.4242 33.6213 37.9354 33.3897C42.3244 33.1003 49.5191 36.623 49.3469 45.3864L49.1526 55.2764L56.1632 55.4141L56.163 55.4196L63.1737 55.5574L63.368 45.6674C63.5402 36.904 70.8676 33.6666 75.2419 34.1282C78.7413 34.4975 82.2412 39.0939 83.6174 41.2917C80.8468 35.0039 75.0877 30.8971 69.2085 28.8706C64.5039 27.2489 59.8018 27.0063 56.7215 27.0015L56.7216 26.9959C53.6435 26.8798 48.9353 26.9375 44.1707 28.3731C38.2164 30.1672 32.4279 33.9269 29.4126 40.101Z" fill="#3C3135"/>
<path d="M51.4356 66.5833C45.1398 65.7583 40.874 62.3264 39.528 60.7136L73.0839 61.1224C70.2437 65.4499 59.3054 67.6146 51.4356 66.5833Z" fill="#DF921C"/>
<path d="M56.1066 64.6848C46.8867 64.8042 40.7214 61.5855 38.7913 59.9612C38.7986 59.5857 44.3146 52.9312 56.3403 52.7917C68.3659 52.6522 73.469 60.6425 73.086 61.0107C72.7031 61.3789 67.6315 64.5355 56.1066 64.6848Z" fill="#FFC921"/>
<ellipse cx="64.9469" cy="57.1504" rx="1.50257" ry="1.00171" transform="rotate(37.525 64.9469 57.1504)" fill="#2C2728"/>
<ellipse cx="1.50257" cy="1.00172" rx="1.50257" ry="1.00172" transform="matrix(-0.816399 0.577488 0.577488 0.816399 47.8181 55.1158)" fill="#2C2728"/>
<ellipse cx="77.9411" cy="49.7572" rx="5.81993" ry="7.73706" transform="rotate(-14.0088 77.9411 49.7572)" fill="#292826"/>
<ellipse cx="5.81992" cy="7.73706" rx="5.81992" ry="7.73706" transform="matrix(-0.960002 -0.279992 -0.279992 0.960002 42.3804 43.0199)" fill="#292826"/>
</g>
<path d="M34.333 70.1299L32.5483 71.723C33.8443 75.8813 45.2793 75.7302 57.8882 75.9779C67.4026 76.1649 74.4968 74.1752 77.7469 72.3605L77.0228 70.9686L34.333 70.1299Z" fill="#F1F1F1"/>
<path d="M77.9077 71.9882C78.6498 72.462 80.1331 73.4596 80.1291 73.6599C80.1242 73.9103 85.819 77.2784 87.0168 80.0572C88.2146 82.8359 93.6391 93.5878 93.887 93.7179C94.1349 93.848 94.2454 94.6016 94.7412 94.8618C95.2371 95.122 96.484 95.397 96.4644 96.3985C96.4447 97.4001 95.1338 100.38 94.2402 101.239C93.3467 102.098 91.4418 103.438 89.8315 102.53C88.2212 101.622 89.1173 100.638 88.8767 100.132C88.7231 99.809 88.4175 99.4321 88.092 98.906C87.9038 99.1948 87.88 99.8618 87.8677 100.488C87.8554 101.114 88.5623 103.382 88.4174 104.381C88.2725 105.38 87.3766 106.364 83.9521 108.551C80.5276 110.738 67.1102 111.602 66.1063 111.707C65.1023 111.813 49.4461 111.881 37.9508 110.528C26.4554 109.175 24.0106 106.121 22.6581 104.842C21.3056 103.563 21.6076 100.939 22.1207 100.323C22.5311 99.8303 22.4784 98.3682 22.4007 97.6987C22.2867 97.9373 22.2052 98.0706 22.165 98.0698C21.7894 98.0624 21.3991 98.8062 21.2591 99.5549C21.1192 100.304 19.4548 102.149 17.3463 101.106C15.2377 100.063 14.3076 96.4126 14.0818 95.1558C13.856 93.8989 15.3657 93.5529 15.7437 93.4351C16.1218 93.3173 16.5072 92.8239 16.6447 92.2004C16.7821 91.5769 19.4923 87.4973 21.7165 82.6567C23.9406 77.8161 30.1684 73.1793 30.5489 72.9363C30.8533 72.7419 32.3695 71.6362 33.0896 71.1077C33.4307 72.8677 42.7954 74.3041 57.0597 74.96C68.4711 75.4848 75.7131 73.1974 77.9077 71.9882Z" fill="#980808"/>
<path d="M17.7357 100.988C17.3351 100.98 15.6902 98.8606 14.9178 97.8018C14.7051 98.0063 14.2246 98.6648 14.0046 99.6624C13.7296 100.909 14.6992 102.557 15.5731 102.699C16.2722 102.813 17.3061 101.606 17.7357 100.988Z" fill="#F1F1F1"/>
<path d="M92.5602 102.458C92.9608 102.466 94.6877 100.413 95.501 99.3849C95.7056 99.5976 96.1599 100.274 96.3405 101.28C96.5663 102.537 95.5328 104.145 94.654 104.253C93.951 104.339 92.9652 103.092 92.5602 102.458Z" fill="#F1F1F1"/>
<path d="M48.6988 90.27C48.7638 90.2 48.8418 90.1435 48.9286 90.1037C49.0154 90.0639 49.1091 90.0416 49.2045 90.038C49.2999 90.0344 49.3951 90.0497 49.4846 90.0829C49.5741 90.1161 49.6562 90.1666 49.7262 90.2315L52.0051 92.3459L51.0162 93.4118L48.7373 91.2974C48.6673 91.2325 48.6108 91.1544 48.571 91.0676C48.5311 90.9808 48.5088 90.8871 48.5053 90.7917C48.5017 90.6963 48.5169 90.6011 48.5502 90.5116C48.5834 90.4221 48.6339 90.34 48.6988 90.27Z" fill="white"/>
<path d="M61.4653 93.6171L60.5191 92.5132L62.8793 90.49C63.0257 90.3645 63.2159 90.3023 63.4081 90.3171C63.6004 90.3319 63.7788 90.4224 63.9043 90.5688C64.0298 90.7152 64.092 90.9054 64.0772 91.0976C64.0625 91.2899 63.9719 91.4684 63.8255 91.5938L61.4653 93.6171Z" fill="white"/>
<path d="M62.4042 94.9809C62.8766 97.2824 63.556 98.7704 63.1866 99.6101C62.9924 100.051 62.6045 100.417 61.9746 100.405C60.9926 100.385 61.0154 99.2273 60.0333 99.208C59.0513 99.1887 59.0287 100.347 58.0468 100.328C57.0649 100.308 57.0877 99.1502 56.1059 99.1309C55.1241 99.1116 55.1013 100.27 54.1194 100.25C53.1375 100.231 53.1603 99.073 52.1785 99.0537C51.1967 99.0344 51.174 100.193 50.1923 100.173C49.6094 100.162 49.2867 99.812 49.0855 99.4112C48.6021 98.4483 49.8137 96.374 50.3031 94.5335C50.844 92.4997 50.8518 89.9534 50.9491 88.4195C51.1369 85.4615 53.4567 83.101 56.4203 83.1592C59.384 83.2174 61.5229 85.6706 61.6807 88.6304C61.7657 90.226 61.9718 92.8742 62.4042 94.9809Z" fill="white"/>
<path d="M54.2921 88.8318C54.6206 88.8382 54.8921 88.5772 54.8986 88.2487C54.905 87.9202 54.644 87.6487 54.3155 87.6422C53.987 87.6358 53.7155 87.8968 53.709 88.2253C53.7026 88.5538 53.9636 88.8253 54.2921 88.8318Z" fill="#292A2E"/>
<path d="M58.3707 88.912C58.6992 88.9184 58.9707 88.6574 58.9772 88.3289C58.9836 88.0004 58.7226 87.7289 58.3941 87.7224C58.0656 87.716 57.7941 87.977 57.7876 88.3055C57.7812 88.634 58.0422 88.9055 58.3707 88.912Z" fill="#292A2E"/>
<path d="M57.3768 89.9035C57.4111 89.9041 57.4449 89.9124 57.4756 89.9276C57.5063 89.9429 57.5333 89.9649 57.5545 89.9919C57.5757 90.0189 57.5906 90.0503 57.5982 90.0838C57.6057 90.1173 57.6057 90.152 57.5981 90.1855C57.4589 90.7793 56.9216 91.1438 56.2871 91.1313C55.6527 91.1188 55.1301 90.7338 55.0143 90.1348C55.008 90.101 55.0094 90.0663 55.0182 90.0331C55.0271 89.9999 55.0432 89.9691 55.0655 89.943C55.0877 89.9168 55.1155 89.8959 55.1469 89.8819C55.1782 89.8678 55.2123 89.8609 55.2466 89.8617L57.3768 89.9035Z" fill="white"/>
<path d="M56.2855 91.2035C55.602 91.1901 55.0625 90.7661 54.9431 90.1483C54.9346 90.1043 54.936 90.059 54.9474 90.0157C54.9587 89.9724 54.9796 89.9321 55.0086 89.8979C55.0378 89.8631 55.0745 89.8352 55.1159 89.8165C55.1573 89.7977 55.2024 89.7884 55.2478 89.7894L57.3781 89.8312C57.4236 89.8321 57.4683 89.8431 57.5089 89.8635C57.5496 89.8839 57.5851 89.9131 57.6129 89.9491C57.6405 89.9844 57.6598 90.0254 57.6695 90.0692C57.6791 90.1129 57.6788 90.1583 57.6686 90.2019C57.5247 90.8145 56.9689 91.217 56.2855 91.2035ZM55.2449 89.9339C55.221 89.9334 55.1973 89.9383 55.1756 89.9482C55.1538 89.958 55.1346 89.9727 55.1192 89.991C55.1042 90.0087 55.0933 90.0296 55.0874 90.052C55.0815 90.0745 55.0807 90.098 55.0851 90.1209C55.1912 90.6698 55.6747 91.0467 56.2882 91.0588C56.9018 91.0709 57.3997 90.7132 57.5273 90.1688C57.5326 90.1462 57.5327 90.1227 57.5277 90.1C57.5227 90.0773 57.5126 90.056 57.4983 90.0377C57.4837 90.0188 57.465 90.0035 57.4437 89.9927C57.4223 89.982 57.3989 89.9762 57.375 89.9758L55.2449 89.9339Z" fill="#292A2E"/>
</g>
</g>
<defs>
<filter id="filter0_d_79_269" x="0" y="0" width="116.385" height="116.386" filterUnits="userSpaceOnUse" color-interpolation-filters="sRGB">
<feFlood flood-opacity="0" result="BackgroundImageFix"/>
<feColorMatrix in="SourceAlpha" type="matrix" values="0 0 0 0 0 0 0 0 0 0 0 0 0 0 0 0 0 0 127 0" result="hardAlpha"/>
<feOffset/>
<feGaussianBlur stdDeviation="4"/>
<feComposite in2="hardAlpha" operator="out"/>
<feColorMatrix type="matrix" values="0 0 0 0 0 0 0 0 0 0 0 0 0 0 0 0 0 0 0.25 0"/>
<feBlend mode="normal" in2="BackgroundImageFix" result="effect1_dropShadow_79_269"/>
<feBlend mode="normal" in="SourceGraphic" in2="effect1_dropShadow_79_269" result="shape"/>
</filter>
<clipPath id="clip0_79_269">
<rect width="61.3004" height="46.9554" fill="white" transform="translate(26.1708 26.6369) rotate(1.1255)"/>
</clipPath>
</defs>
</svg>
